<?xml version="1.0" encoding="UTF-8"?>
<svg id="Layer_1" xmlns="http://www.w3.org/2000/svg" version="1.1" viewBox="0 0 123.2 110.8">
  <!-- Generator: Adobe Illustrator 29.2.1, SVG Export Plug-In . SVG Version: 2.1.0 Build 116)  -->
  <defs>
    <style>
      .st0 {
        fill: #231f20;
      }
    </style>
  </defs>
  <path class="st0" d="M0-1.1v111.9h123.2V-1.1H0ZM94.1,72.9c-3.2,5.9-2.9,15.1-9,16.1-.5,0-.9.2-1.4.3-2,.7-4.1,1.1-6.2,1h-2.5c-19.3-1.7-18.8.6-29.6,1.7-10.1,1.1-15.8-11.8-19.8-21.2-3.9-9.4-2.7-6.6-4.1-9.9s-1.4-7.3.2-10.7c7.5-16.7,19.9-28.7,36.4-36.5,3.4-1.6,7.4-1.7,10.9-.3,5.7,2.3,11.3,4.7,17.1,7.1,5.7,2.4,14.9,13,15.5,21.6.7,9.3,3.9,9.7-7.5,30.7Z"/>
</svg>