<?xml version="1.0" encoding="UTF-8"?>
<svg id="no-background" xmlns="http://www.w3.org/2000/svg" version="1.1" viewBox="0 0 396.6 261.3">
  <!-- Generator: Adobe Illustrator 29.2.1, SVG Export Plug-In . SVG Version: 2.1.0 Build 116)  -->
  <defs>
    <style>
      .st0 {
        fill: #ed1c24;
      }
    </style>
  </defs>
  <path class="st0" d="M280.6,121c7.8-2.4,14.1-7.3,19.1-13.6,3.4-4.3,2.6-6.7-2.5-8.4-2.8-.9-5.6-1.8-8.4-2.7-3.6-1.2-6.3-.4-9.3,2.1-2.7,2.3-6.1,4-9.5,5.1-10.7,3.5-21.3-1.5-24.4-11.2-1.8-5.7-1.1-7,4.9-7.1,8.4-.2,16.8,0,25.2,0h0c8.4,0,16.8,0,25.2,0,3.7,0,6.9-.8,7.3-5.3,1.3-12.9-.8-24.9-9.2-35.2-17.5-21.3-55.6-17-70.2,8.9-7.4,13.2-8.2,27.4-5.1,41.6h0c2.3,10.8,9,19.1,19.2,24.2,12.4,6.1,25,5.6,37.8,1.7h0ZM246.7,66.3c1.1-7.1,9.2-14.2,17.3-15.1,9.4-1,16.5,3.1,19.4,11.3,2.3,6.3,1.4,7.8-5.1,8.1-4.3.2-8.6,0-12.9,0h0c-5,0-10,0-15,0h0c-2.7,0-4.2-1.2-3.8-4.2h0Z"/>
  <path class="st0" d="M110.1,115.6c-1.6-8-3.6-15.9-5.3-23.9-5.8-26.5-11.6-53.1-17.4-79.6C84.8.5,84.7.3,73.2.2c-1.5,0-3.9-.1-5.4-.2-5.9-.3-9.4,2.6-12.3,8.6-9,18.8-18.8,37.2-28.2,55.8-8.6,17-17.2,34-25.7,51-2.7,5.3-2.1,6.3,3.7,6.5,4.5.1,9.1-.2,13.6.1,4.6.3,7.1-1.7,8.9-5.7,2-4.6,4.2-9,6.5-13.4,1.4-2.7,3.2-4.8,6.8-4.7,11.8.1,23.6.1,35.4,0,3.3,0,5.1,1.5,5.8,4.6.9,4,1.6,8,2.6,11.9,1.7,6.8,2.4,7.3,9.2,7.3,3.6,0,7.3,0,10.9,0,5.9-.2,6.4-.6,5.2-6.3h0ZM70.2,78.7c-6.1.1-12.2,0-18.4-.2-3.4-.1-5-1.8-3.3-5.4l17.5-36.8c.2-.5.9-.9,1.8-1.6.6,1.1,1.5,2,1.7,2.9h0s6.5,34,6.5,34c1,6,.2,6.8-5.8,6.9Z"/>
  <path class="st0" d="M210,192.4c-15.2-.2-30.4,0-45.7,0-3.8,0-6,1.4-5.8,5.6.1,3.4.1,6.8,0,10.2,0,3.4,1.6,5,4.9,5.1,5,0,10,.1,15,.1,9.3,0,11.1,2.8,6.3,10.8-1.6,2.8-4.5,5.1-7.3,6.8-6.6,4-14,3.2-21.2,2.8-8.5-.4-15.3-4.4-19.6-11.8-8.5-14.9-9.2-30.2-.7-45.3,9.6-16.9,36.5-17.7,47.1-1.4,2.6,4.1,5.6,5.5,10.2,4.7,5.1-.9,10.3-1.8,15.4-2.5,6.1-.8,7.2-1.9,5.3-7.9-2.8-9.1-7.9-16.9-15.8-22.4-19.4-13.5-40.4-14.9-62.2-6.9-11.5,4.2-20.5,12-26.4,22.5-12,21.6-12.3,44.2-2.4,66.6,14.3,32.4,64.2,42.4,85,18.6.4-.4,1.2-.5,1.7-.6.4.4.9.7,1,1.1.9,3.3.8,8.1,2.9,9.7,2.4,1.8,6.9.8,10.6,1,.7,0,1.4,0,2,0,5.3-.3,6-.7,6-5.9h0c0-18.2,0-36.3,0-54.5,0-5.4-.9-6.4-6.4-6.4h0Z"/>
  <path class="st0" d="M185.7,121.9h6.8c2.7,0,4-1.4,4.4-4.1.8-6.3,1.8-12.6,2.7-18.9,1.3-9.4,2.6-18.9,3.9-28.3,2.3-15.9,4.6-31.9,6.9-47.8.8-5.4,1.7-10.8,2.4-16.1.6-5-.3-6.1-5.3-6.4-4.1-.2-8.2,0-12.3,0-2.9,0-4.4,1.5-4.9,4.6-2.6,18.9-5.4,37.7-8,56.6-2.2,16.4-3.7,32.9-6.7,49.2h0c-2.2,12.3-1.2,11.2,10.1,11.1h0Z"/>
  <path class="st0" d="M136.5,121.9c2.3,0,4.5,0,6.8,0,2.6,0,4.2-1,4.6-3.9.8-6.1,1.8-12.1,2.6-18.2,1.3-9.7,2.6-19.3,3.9-29,2.2-15.7,4.6-31.4,6.8-47.1.8-5.6,1.7-11.2,2.4-16.8.4-3.1.5-6.3-3.7-6.5-4.8-.2-9.5-.2-14.3,0-2.6,0-4,1.6-4.4,4.3-2.7,19.1-5.5,38.1-8.1,57.2-2.2,16.2-3.7,32.5-6.6,48.5h0c-2.1,11.8-2.2,11.5,9.8,11.4h0Z"/>
  <path class="st0" d="M384.8,36.5c-5.8-3.4-12.1-5.3-18.9-6.1-2.1-.2-4.2-.1-6.2.3-5,1-10.1,1.8-14.9,3.6-14.4,5.2-21.2,20.5-15.4,33.5,3.1,6.9,9,10.6,15.7,13.3,6.5,2.6,13,5.2,19.5,8,3.1,1.3,5.8,4,4.8,7.3-.8,2.7-3,5.7-5.4,7.1-6.1,3.5-17.4.8-22.7-4.1-2-1.8-4.9-3.1-7.5-3.6-3.1-.6-6.3-.3-9.5-.1-5.5.2-6.7,2.2-4.8,7.5,2.5,7.2,7,12.8,14,15.8,4.5,1.9,9.4,3.5,14.2,4.4,11.8,2.1,23.1.4,33.5-5.8,14.9-8.9,16.5-31.1,3.1-41.8-3.6-2.9-8.2-4.8-12.5-6.7-5.1-2.3-10.7-3.8-15.7-6.4-2-1-3.7-4-4.1-6.3-.5-3.1,2.2-4.5,5-5.5,7-2.5,13.7-1,18.2,4.9,1.7,2.3,3.4,3.4,6.1,3.3,3.4,0,6.8.1,10.2,0h0c5-.2,5.8-1.4,5-6.5-1.2-7.2-5.4-12.4-11.5-16h0Z"/>
  <path class="st0" d="M393,247.7c0-8.1-.4-8.4-8.4-8.6-8.6-.2-10.3-1.7-10.4-10.5-.1-10.2,0-20.4,0-30.6,0-6.9.3-7,7.5-7.1,1.8,0,3.6,0,5.4,0,3.8,0,6-1.6,5.9-5.7,0-3.2,0-6.4,0-9.5,0-3.4-1.8-5.1-4.9-5.3-2.7-.2-5.4-.3-8.2-.2-4,.1-5.9-1.6-5.8-5.6,0-3.4,0-6.8,0-10.2,0-3.4-1.7-5-5-5.1-4.3,0-8.6,0-12.9,0-3.2,0-5.2,1.5-5.8,4.5-.7,3.6-1.1,7.1-1.6,10.7-.5,3.6-2.4,5.5-6.3,5.7-9.7.6-9.7.8-9.7,10.5,0,1.8,0,3.6,0,5.4,0,3,1.3,4.7,4.5,4.7,1.1,0,2.3,0,3.4,0,6.1.3,6.4.5,6.4,6.8,0,5.7,0,11.3,0,17h.2c0,6.8,0,13.6,0,20.4,0,2.2.7,4.5,1.2,6.7,1.9,9,7.5,14.5,16,17.7,8.5,3.2,16.6,1.2,24.7-.7,1.5-.4,2.9-2.7,3.4-4.4h0c.6-2.1.2-4.5.2-6.8h0Z"/>
  <path class="st0" d="M319.8,189c0-4.5,0-9.1,0-13.6s-1.6-5.2-4.9-5.3c-5.4-.1-10.9-.1-16.3,0-2.9,0-4.6,1.7-4.8,4.6-.1,1.8-2.4,5.5-.1,7.2,0,11.8.9,20.3.8,32.1,0,8.5-3.5,17.1-11.8,21-9.4,4.5-17.6,0-18.9-10.2-.3-2.5-.2-5-.2-7.5,0-13.2,0-26.3,0-39.5,0-7.5-.6-8-8.3-8-3.6,0-7.2,0-10.9,0-6,.1-6.7.8-6.7,6.6,0,17.5-.4,35,.1,52.4.7,26,23.4,36.5,41.6,30.5,1.2-.4,2.4-.9,3.5-1.4,5.3-2.3,11.3-2.4,16.5,0,1.3.6,2.8.9,4.5.9,2.3,0,4.5,0,6.8,0,9.1,0,9.2-.1,9.2-9h0c0-20.4,0-40.9,0-61.3h0Z"/>
</svg>