<?xml version="1.0" encoding="UTF-8"?>
<svg xmlns="http://www.w3.org/2000/svg" version="1.1" viewBox="0 0 123.2 110.8">
  <!-- Generator: Adobe Illustrator 29.2.1, SVG Export Plug-In . SVG Version: 2.1.0 Build 116)  -->
  <defs>
    <style>
      .st0 {
        fill: #231f20;
      }

      .st1 {
        display: none;
      }
    </style>
  </defs>
  <g id="Layer_2" class="st1">
    <rect class="st0" y="-1.1" width="123.2" height="111.9"/>
  </g>
  <g id="Layer_1">
    <path class="st0" d="M78.8,103.8c-24.5-2.1-24,.8-37.7,2.3-12.9,1.4-20.1-15-25.2-27-5-12-3.5-8.4-5.3-12.6s-1.8-9.3.3-13.7C20.4,31.5,36.2,16.2,57.3,6.3c4.3-2,9.4-2.2,13.8-.3,7.2,3,14.4,6,21.7,9.1s19,16.6,19.8,27.5c.9,11.9,5,12.4-9.6,39.1-4.1,7.6-3.7,19.2-11.4,20.6-.6.1-1.2.2-1.7.4-2.6.9-5.2,1.4-8,1.3h-3.2Z"/>
  </g>
</svg>